<svg class="icon" viewBox="0 0 1024 1024" xmlns="http://www.w3.org/2000/svg" width="128" height="128"><path d="M266.688 128a29.632 29.632 0 0 0-29.568 29.696c0 16.448 13.248 29.696 29.568 29.696H807.36c16.32 0 29.568 13.312 29.568 29.76v602.624a29.632 29.632 0 0 0 59.072 0V217.152c0-49.28-39.68-89.152-88.576-89.152h-540.8z"/><path d="M275.648 603.328c0-16.384 13.248-29.696 29.568-29.696H423.36v-148.48c0-16.448 13.184-29.76 29.504-29.76s29.568 13.312 29.568 29.696v148.544h118.144c16.32 0 29.504 13.312 29.504 29.696a29.632 29.632 0 0 1-29.504 29.76H482.432v148.48a29.632 29.632 0 0 1-29.568 29.76 29.632 29.632 0 0 1-29.504-29.696V633.088H305.216a29.632 29.632 0 0 1-29.568-29.76z"/><path d="M216.576 238.464C167.68 238.464 128 278.4 128 327.68v543.232C128 920.128 167.68 960 216.576 960H698.24c48.96 0 88.64-39.872 88.64-89.152V327.68c0-49.28-39.68-89.152-88.64-89.152H216.576zm-29.504 89.216c0-16.384 13.248-29.696 29.504-29.696H698.24c16.32 0 29.568 13.312 29.568 29.696v543.232a29.632 29.632 0 0 1-29.568 29.76H216.576a29.632 29.632 0 0 1-29.504-29.76V327.68z"/></svg>