<svg class="icon" viewBox="0 0 1024 1024" xmlns="http://www.w3.org/2000/svg" width="128" height="128"><defs><style/></defs><path d="M518.827 981.333c-254.294 0-460.8-206.506-460.8-460.8s206.506-460.8 460.8-460.8 460.8 206.507 460.8 460.8-206.507 460.8-460.8 460.8zm0-853.333c-216.747 0-392.534 175.787-392.534 392.533S302.08 913.067 518.827 913.067 911.36 737.28 911.36 520.533 735.573 128 518.827 128z"/><path d="M484.693 469.333h68.267v315.734h-68.267z"/><path d="M518.827 510.293L358.4 348.16l47.787-47.787 112.64 112.64 112.64-112.64 47.786 47.787z"/><path d="M348.16 443.733h341.333V512H348.16zm0 153.6h341.333V665.6H348.16z"/></svg>