<svg class="icon" viewBox="0 0 1024 1024" xmlns="http://www.w3.org/2000/svg" width="128" height="128"><defs><style/></defs><path d="M508.587 491.52c-131.414 0-238.934-107.52-238.934-238.933S377.173 13.653 508.587 13.653 747.52 121.173 747.52 252.587 640 491.52 508.587 491.52zm0-409.6c-93.867 0-170.667 76.8-170.667 170.667s76.8 170.666 170.667 170.666 170.666-76.8 170.666-170.666S602.453 81.92 508.587 81.92zm375.466 933.547H133.12V624.64l88.747-78.507 44.373 51.2-64.853 58.027V947.2h614.4V655.36l-66.56-58.027 44.373-51.2 90.453 78.507z"/><path d="M506.88 744.107L358.4 624.64l42.667-54.613L506.88 655.36l107.52-85.333 42.667 54.613z"/></svg>