<svg class="icon" viewBox="0 0 1024 1024" xmlns="http://www.w3.org/2000/svg" width="128" height="128"><defs><style/></defs><path d="M238.933 296.96L211.627 153.6H0V85.333h266.24l40.96 197.974z"/><path d="M916.48 802.133H329.387L232.107 256h781.653l-97.28 546.133zm-529.067-68.266H860.16l73.387-409.6h-619.52l73.386 409.6z"/><path d="M443.733 443.733h358.4V512h-358.4zM375.467 989.867C308.907 989.867 256 936.96 256 870.4s52.907-119.467 119.467-119.467S494.933 803.84 494.933 870.4s-52.906 119.467-119.466 119.467zm0-170.667c-29.014 0-51.2 22.187-51.2 51.2s22.186 51.2 51.2 51.2 51.2-22.187 51.2-51.2-22.187-51.2-51.2-51.2zM870.4 989.867c-66.56 0-119.467-52.907-119.467-119.467S803.84 750.933 870.4 750.933 989.867 803.84 989.867 870.4 936.96 989.867 870.4 989.867zm0-170.667c-29.013 0-51.2 22.187-51.2 51.2s22.187 51.2 51.2 51.2 51.2-22.187 51.2-51.2-22.187-51.2-51.2-51.2z"/></svg>